# AST/ASF file generated using VICON BodyLanguage
# -----------------------------------------------
:version 1.10
:name VICON
:units
  mass 1.0
  length 0.45
  angle deg
:documentation
   .ast/.asf automatically generated from VICON data using
   VICON BodyBuilder and BodyLanguage model FoxedUp or BRILLIANT.MOD
:root
   order TX TY TZ RX RY RZ
   axis XYZ
   position 0 0 0  
   orientation 0 0 0 
:bonedata
  begin
     id 1 
     name lhipjoint
     direction 0.573633 -0.743009 0.344793 
     length 2.46257 
     axis 0 0 0  XYZ
  end
  begin
     id 2 
     name lfemur
     direction 0.34202 -0.939693 0  
     length 7.3842  
     axis 0 0 20  XYZ
    dof rx ry rz
    limits (-160.0 20.0)
           (-70.0 70.0)
           (-60.0 70.0)
  end
  begin
     id 3 
     name ltibia
     direction 0.34202 -0.939693 0   
     length 7.50407   
     axis 0 0 20   XYZ
    dof rx
    limits (-10.0 170.0)
  end
  begin
     id 4 
     name lfoot
     direction 0.110749 -0.304281 0.946123   
     length 1.95925   
     axis -90 7.62852e-016 20   XYZ
    dof rx rz
    limits (-45.0 90.0)
           (-70.0 20.0)
  end
  begin
     id 5 
     name ltoes
     direction 1.53554e-011 -4.21843e-011 1   
     length 0.978318   
     axis -90 7.62852e-016 20   XYZ
    dof rx
    limits (-90.0 20.0)
  end
  begin
     id 6 
     name rhipjoint
     direction -0.488109 -0.791693 0.367385   
     length 2.31113  
     axis 0 0 0  XYZ 
  end
  begin
     id 7 
     name rfemur
     direction -0.34202 -0.939693 0   
     length 7.40965   
     axis 0 0 -20   XYZ
    dof rx ry rz
    limits (-160.0 20.0)
           (-70.0 70.0)
           (-70.0 60.0)
  end
  begin
     id 8 
     name rtibia
     direction -0.34202 -0.939693 0   
     length 7.55548   
     axis 0 0 -20   XYZ
    dof rx
    limits (-10.0 170.0)
 end
 begin
     id 9 
     name rfoot
     direction -0.127594 -0.350561 0.927808   
     length 2.07199  
     axis -90 -7.62852e-016 -20   XYZ
    dof rx rz
    limits (-45.0 90.0)
           (-20.0 70.0)
  end
  begin
     id 10 
     name rtoes
     direction -1.53542e-011 -4.21909e-011 1   
     length 1.02667   
     axis -90 -7.62852e-016 -20   XYZ
    dof rx
    limits (-90.0 20.0)
  end
  begin
     id 11 
     name lowerback
     direction -0.0103342 0.997298 -0.0727278   
     length 2.02836   
     axis 0 0 0   XYZ
    dof rx ry rz
    limits (-20.0 45.0)
           (-30.0 30.0)
           (-30.0 30.0)
  end
  begin
     id 12 
     name upperback
     direction 0.0171146 0.999786 -0.011606   
     length 2.03179   
     axis 0 0 0   XYZ
    dof rx ry rz
    limits (-20.0 45.0)
           (-30.0 30.0)
           (-30.0 30.0)
  end
  begin
     id 13 
     name thorax
     direction 0.0216927 0.999513 0.0224343   
     length 2.03882   
     axis 0 0 0   XYZ
    dof rx ry rz
    limits (-20.0 45.0)
           (-30.0 30.0)
           (-30.0 30.0)
  end
  begin
     id 14 
     name lowerneck
     direction 0.000989287 0.993907 0.110221   
     length 1.75428   
     axis 0 0 0   XYZ
    dof rx ry rz
    limits (-20.0 45.0)
           (-30.0 30.0)
           (-30.0 30.0)
  end
  begin
     id 15 
     name upperneck
     direction -0.0172474 0.994813 -0.100253   
     length 1.77058   
     axis 0 0 0   XYZ
    dof rx ry rz
    limits (-20.0 45.0)
           (-30.0 30.0)
           (-30.0 30.0)
  end
  begin
     id 16
     name head
     direction -0.00486455 0.99894 -0.0457663  
     length 1.77427  
     axis 0 0 0   XYZ
    dof rx ry rz
    limits (-20.0 45.0)
           (-30.0 30.0)
           (-30.0 30.0)
  end
  begin
     id 17 
     name lclavicle
     direction 0.927314 0.333734 -0.169441  
     length 3.97584  
     axis 0 0 0   XYZ
    dof ry rz
    limits (-20.0 10.0)
           (0.0 20.0)
  end
  begin
     id 18 
     name lhumerus
     direction 1 -4.48965e-011 -3.25313e-028   
     length 4.76468   
     axis 180 -30 -90   XYZ
    dof rx ry rz
    limits (-60.0 90.0)
           (-90.0 90.0)
           (-90.0 90.0)
  end
  begin
     id 19
     name lradius
     direction 1 -4.48969e-011 -2.8465e-028   
     length 3.52712   
     axis -180 -30 -90   XYZ
    dof rx
    limits (-10.0 170.0)
  end
  begin
     id 20
     name lwrist
     direction 1 -4.4896e-011 -7.78665e-028   
     length 1.76356   
     axis 1.91374e-015 90 90   XYZ
    dof ry
    limits (-180.0 0.0)
 end
  begin
     id 21 
     name lhand
     direction 1 -4.48959e-011 -1.55733e-027   
     length 0.859564   
     axis 9.9371e-016 90 90   XYZ
    dof rx rz
    limits (-90.0 90.0)
           (-45.0 45.0)
  end
  begin
     id 22 
     name lfingers
     direction 1 -4.48965e-011 -3.11466e-027   
     length 0.693002   
     axis 1.98742e-015 90 90   XYZ
    dof rx
    limits (0.0 90.0)
  end
  begin
     id 23
     name lthumb
     direction 0.707107 -6.34948e-011 0.707107   
     length 0.995017   
     axis -90 45 2.85299e-015   XYZ
    dof rx rz
    limits (-45.0 45.0)
           (-45.0 45.0)
  end
  begin
     id 24 
     name rclavicle
     direction -0.899388 0.348209 -0.264294   
     length 3.68366  
     axis 0 0 0   XYZ 
    dof ry rz
    limits (-10.0 20.0)
           (-20.0 0.0)
  end
  begin
     id 25 
     name rhumerus
     direction -1 -4.48965e-011 -3.01536e-027  
     length 4.90577   
     axis 180 30 90   XYZ
    dof rx ry rz
    limits (-90.0 60.0)
           (-90.0 90.0)
           (-90.0 90.0)
  end
  begin
     id 26 
     name rradius
     direction -1 -4.48966e-011 3.93291e-027   
     length 3.42692   
     axis -180 30 90   XYZ
    dof rx
    limits (-10.0 170.0)
  end
  begin
     id 27 
     name rwrist
     direction -1 -4.48969e-011 -7.78665e-028   
     length 1.71346   
     axis 1.91374e-015 -90 -90   XYZ
    dof ry
    limits (-180.0 0.0)
  end
  begin
     id 28
     name rhand
     direction -1 -4.48967e-011 -1.55733e-027   
     length 0.740957   
     axis 9.9371e-016 -90 -90   XYZ
    dof rx rz
    limits (-90.0 90.0)
           (-45.0 45.0)
  end
  begin
     id 29
     name rfingers
     direction -1 -4.48949e-011 -3.11466e-027   
     length 0.597378   
     axis 1.98742e-015 -90 -90   XYZ
    dof rx
    limits (0.0 90.0)
  end
  begin
     id 30
     name rthumb
     direction -0.707107 -6.34931e-011 0.707107   
     length 0.857719   
     axis -90 -45 -2.85299e-015   XYZ
    dof rx rz
    limits (-45.0 45.0)
           (-45.0 45.0)
  end
:hierarchy
  begin
    root lhipjoint rhipjoint lowerback
    lhipjoint lfemur
    lfemur ltibia
    ltibia lfoot
    lfoot ltoes
    rhipjoint rfemur
    rfemur rtibia
    rtibia rfoot
    rfoot rtoes
    lowerback upperback
    upperback thorax
    thorax lowerneck lclavicle rclavicle
    lowerneck upperneck
    upperneck head
    lclavicle lhumerus
    lhumerus lradius
    lradius lwrist
    lwrist lhand lthumb
    lhand lfingers
    rclavicle rhumerus
    rhumerus rradius
    rradius rwrist
    rwrist rhand rthumb
    rhand rfingers
  end

#!OML:ASF I:\AllaLogoMonkeySwing\Project 1\Capture day 1\Session 1\Subject1.ASF
:FULLY-SPECIFIED
:DEGREES
63
root -1.03912 17.7879 -10.165 1.74719 -0.302495 11.8961
lowerback 12.0437 -1.17561 -7.02888
upperback 1.33429 -2.52256 -0.64422
thorax -5.07691 -1.10529 3.68653
lowerneck -11.0948 3.06995 -0.535891
upperneck 19.4458 5.08645 -3.62982
head 7.92255 2.02896 -0.596375
rclavicle -2.14687e-014 7.95139e-015
rhumerus -51.226 -9.09313 -69.1553
rradius 46.9464
rwrist -10.2231
rhand -13.8151 -38.426
rfingers 7.12502
rthumb 12.3074 -68.0438
lclavicle -2.14687e-014 7.95139e-015
lhumerus -46.7747 8.79249 79.3677
lradius 55.1315
lwrist 8.18418
lhand -8.08674 -14.6213
lfingers 7.12502
lthumb 17.8254 14.5818
rfemur -23.7946 -5.0407 11.9918
rtibia 38.795
rfoot -10.8041 -3.7854
rtoes 11.8875
lfemur 4.28478 4.45615 -12.201
ltibia 90.2903
lfoot 2.24518 -4.61528
ltoes -26.9099
64
root -0.999338 17.498 -9.99277 1.56901 -0.684063 7.44509
lowerback 12.9303 -1.55873 -1.99805
upperback 1.23033 -2.31232 0.603906
thorax -5.84826 -1.07763 2.17169
lowerneck -10.9912 3.35453 -0.36209
upperneck 19.7105 5.54591 -4.05577
head 8.01877 2.21372 -0.718802
rclavicle 2.40529e-014 -2.38542e-015
rhumerus -50.2431 -9.53478 -68.5066
rradius 44.616
rwrist -9.79218
rhand -13.4292 -37.611
rfingers 7.12502
rthumb 12.6795 -67.2061
lclavicle 2.40529e-014 -2.38542e-015
lhumerus -45.6059 10.8568 79.3831
lradius 54.6731
lwrist 6.73032
lhand -7.69701 -14.7724
lfingers 7.12502
lthumb 18.2004 14.3961
rfemur -25.3212 -4.78677 17.0733
rtibia 43.5134
rfoot -15.1393 -4.8399
rtoes 14.8103
lfemur 4.66575 5.08239 -6.7493
ltibia 90.1279
lfoot 0.465278 -5.36947
ltoes -28.6289
65
root -0.997763 17.2569 -9.85779 3.31592 -1.50766 9.59663
lowerback 11.7037 -1.26616 -4.4161
upperback 0.688439 -2.2556 0.126011
thorax -5.668 -0.993876 2.98937
lowerneck -11.3213 3.55601 -0.0220073
upperneck 20.2077 5.7998 -4.10247
head 8.2615 2.33709 -0.755629
rclavicle -2.18663e-014 -2.38542e-015
rhumerus -48.3012 -10.3811 -68.1009
rradius 41.0465
rwrist -9.24364
rhand -12.4181 -36.82
rfingers 7.12502
rthumb 13.6541 -66.3522
lclavicle -2.18663e-014 -2.38542e-015
lhumerus -43.9479 13.2752 79.3001
lradius 53.5822
lwrist 5.20077
lhand -8.00205 -15.4003
lfingers 7.12502
lthumb 17.9069 13.7953
rfemur -29.2177 -5.09543 14.9528
rtibia 47.5752
rfoot -18.3938 -4.62495
rtoes 17.7293
lfemur 1.71027 6.12883 -10.4536
ltibia 89.9384
lfoot -0.414187 -4.08706
ltoes -28.4292
66
root -1.04783 17.0612 -9.72083 3.55622 -0.796783 10.0203
lowerback 11.4753 -1.42742 -6.08467
upperback 0.881184 -2.64246 0.541018
thorax -5.21069 -1.1583 4.41249
lowerneck -11.5415 3.60367 0.138386
upperneck 19.9789 5.90175 -4.46133
head 8.24441 2.36349 -0.886897
rclavicle 3.37934e-014 2.54444e-014
rhumerus -45.9863 -12.3599 -66.8509
rradius 36.8814
rwrist -7.17326
rhand -10.0787 -35.0959
rfingers 7.12502
rthumb 15.9079 -64.4625
lclavicle 3.37934e-014 2.54444e-014
lhumerus -42.4816 16.3874 79.8401
lradius 52.42
lwrist 4.55933
lhand -9.78296 -15.8473
lfingers 7.12502
lthumb 16.1926 13.4964
rfemur -30.3488 -5.2116 14.6997
rtibia 50.3549
rfoot -21.1269 -5.69336
rtoes 18.5873
lfemur -0.253423 5.70319 -11.4324
ltibia 89.6708
lfoot -1.18545 -2.95172
ltoes -26.7472
67
root -1.04935 16.9278 -9.58375 3.43381 0.0544896 9.86852
lowerback 11.5501 -1.62672 -6.22528
upperback 1.07362 -2.9142 0.692232
thorax -5.00123 -1.3001 4.68896
lowerneck -11.4141 3.50616 0.496295
upperneck 19.7525 5.67191 -4.42446
head 8.14728 2.29239 -0.961416
rclavicle 1.78906e-014 4.6118e-014
rhumerus -44.5787 -15.6511 -65.4223
rradius 33.4943
rwrist -4.37769
rhand -9.60615 -35.7162
rfingers 7.12502
rthumb 16.3629 -65.046
lclavicle 1.78906e-014 4.6118e-014
lhumerus -41.9409 17.8768 80.6602
lradius 52.2617
lwrist 4.73997
lhand -12.4901 -15.1729
lfingers 7.12502
lthumb 13.5846 14.3639
rfemur -30.6013 -5.69529 14.8871
rtibia 52.4819
rfoot -23.086 -6.62308
rtoes 17.1823
lfemur -1.52379 5.18021 -12.2259
ltibia 88.9518
lfoot -2.03124 -1.27232
ltoes -24.6037
68
root -1.03733 16.8541 -9.4702 2.7933 0.0680577 8.0258
lowerback 12.4883 -1.59298 -4.43874
upperback 1.25518 -2.65223 1.1533
thorax -5.42181 -1.19333 4.16679
lowerneck -11.3986 3.37046 0.68692
upperneck 19.6197 5.41638 -4.31877
head 8.09426 2.19894 -0.985698
rclavicle 3.77691e-015 7.95139e-015
rhumerus -43.957 -18.8509 -64.2752
rradius 31.2475
rwrist -1.95009
rhand -10.0992 -36.4358
rfingers 7.12502
rthumb 15.8881 -65.804
lclavicle 3.77691e-015 7.95139e-015
lhumerus -41.4267 17.7151 81.8629
lradius 52.1225
lwrist 5.50995
lhand -14.3889 -14.0027
lfingers 7.12502
lthumb 11.7541 15.6475
rfemur -30.0144 -4.932 16.9053
rtibia 53.7211
rfoot -24.1636 -7.65162
rtoes 16.7763
lfemur -1.83126 5.98052 -10.6147
ltibia 87.8964
lfoot -3.0457 -0.685588
ltoes -22.9515
69
root -1.0159 16.808 -9.35605 2.43705 -0.101065 7.21001
lowerback 13.0809 -1.49441 -3.59362
upperback 1.30337 -2.41407 1.31693
thorax -5.75202 -1.08448 3.84777
lowerneck -11.5122 3.25371 0.855125
upperneck 19.6366 5.22636 -4.33292
head 8.11968 2.11788 -1.03646
rclavicle 8.54774e-015 1.11319e-014
rhumerus -43.6219 -20.698 -64.0385
rradius 29.9286
rwrist -0.78092
rhand -11.5637 -37.5033
rfingers 7.12502
rthumb 14.4774 -66.9783
lclavicle 8.54774e-015 1.11319e-014
lhumerus -40.9701 15.9502 83.4664
lradius 51.9475
lwrist 6.89114
lhand -14.999 -13.2987
lfingers 7.12502
lthumb 11.1657 16.3842
rfemur -29.5266 -4.48474 17.8129
rtibia 54.4934
rfoot -24.9295 -8.4122
rtoes 17.1298
lfemur -2.22021 6.96939 -10.373
ltibia 86.5113
lfoot -3.75397 -0.384403
ltoes -24.4139
70
root -1.01422 16.7862 -9.24963 2.76452 -0.492053 7.68339
lowerback 12.9025 -1.27021 -4.45449
upperback 1.21563 -2.24161 1.22037
thorax -5.7326 -0.9798 4.19908
lowerneck -11.868 3.21021 0.931826
upperneck 19.698 5.14324 -4.27287
head 8.20255 2.08323 -1.03243
rclavicle 2.14687e-014 -3.18055e-014
rhumerus -42.993 -20.6989 -65.1638
rradius 29.7592
rwrist -1.44593
rhand -12.3903 -38.5618
rfingers 7.12502
rthumb 13.6809 -68.0921
lclavicle 2.14687e-014 -3.18055e-014
lhumerus -40.5786 14.0165 85.0003
lradius 51.9933
lwrist 7.0331
lhand -13.9464 -13.6544
lfingers 7.12502
lthumb 12.1808 15.971
rfemur -29.7575 -4.05066 17.4881
rtibia 54.9283
rfoot -25.3333 -9.34481
rtoes 17.9926
lfemur -3.36607 8.01136 -11.7675
ltibia 85.0555
lfoot -4.19787 -0.873713
ltoes -24.8226
71
root -1.02335 16.7883 -9.15695 3.12129 -0.697782 7.38508
lowerback 12.9418 -1.13494 -4.66744
upperback 1.07741 -2.09071 1.32639
thorax -5.90537 -0.891139 4.41258
lowerneck -12.237 3.15047 1.00441
upperneck 19.6307 5.02531 -4.1847
head 8.24287 2.03705 -1.02241
rclavicle 7.15625e-015 -8.74653e-015
rhumerus -42.3532 -19.7196 -66.7953
rradius 30.0972
rwrist -2.83866
rhand -12.3831 -38.3058
rfingers 7.12502
rthumb 13.6878 -67.8357
lclavicle 7.15625e-015 -8.74653e-015
lhumerus -40.4603 12.7024 86.1863
lradius 52.5763
lwrist 5.32059
lhand -12.0659 -14.962
lfingers 7.12502
lthumb 13.9935 14.547
rfemur -29.7999 -3.46266 18.0679
rtibia 55.0059
rfoot -25.6343 -10.4382
rtoes 20.0808
lfemur -4.59623 8.79919 -12.1194
ltibia 83.7495
lfoot -4.58881 -2.55867
ltoes -24.6631
72
root -1.0389 16.8059 -9.07443 3.42347 -0.622774 6.95578
lowerback 13.2182 -1.07368 -4.7797
upperback 0.907474 -2.03513 1.4286
thorax -6.23904 -0.844911 4.5915
lowerneck -12.481 3.06046 1.09892
upperneck 19.3787 4.83594 -4.02577
head 8.19488 1.97105 -1.00274
rclavicle 2.64384e-014 2.62396e-014
rhumerus -41.8676 -18.2586 -68.6232
rradius 31.012
rwrist -3.84945
rhand -11.5838 -37.311
rfingers 7.12502
rthumb 14.4581 -66.7873
lclavicle 2.64384e-014 2.62396e-014
lhumerus -40.5639 11.4228 87.1709
lradius 53.3168
lwrist 3.0124
lhand -10.7167 -16.9433
lfingers 7.12502
lthumb 15.2934 12.4713
rfemur -29.6135 -3.02219 18.783
rtibia 54.7971
rfoot -25.8639 -11.5481
rtoes 22.1242
lfemur -5.82818 9.21586 -12.3294
ltibia 82.6383
lfoot -5.97322 -3.86503
ltoes -28.6504
73
root -1.05323 16.8309 -8.99976 3.66784 -0.467363 6.66055
lowerback 13.4804 -1.03639 -4.96374
upperback 0.837103 -2.02699 1.4288
thorax -6.45537 -0.826568 4.70751
lowerneck -12.8137 2.99903 1.01793
upperneck 19.0916 4.6554 -3.55018
head 8.1392 1.92689 -0.847099
rclavicle -6.75868e-015 -1.98785e-014
rhumerus -41.4436 -16.793 -70.5676
rradius 32.6158
rwrist -3.9857
rhand -10.773 -36.802
rfingers 7.12502
rthumb 15.2392 -66.2206
lclavicle -6.75868e-015 -1.98785e-014
lhumerus -40.608 10.1509 88.0049
lradius 53.8447
lwrist 0.705504
lhand -10.5245 -19.1076
lfingers 7.12502
lthumb 15.4785 10.2927
rfemur -29.2779 -2.72778 19.2911
rtibia 54.3266
rfoot -25.9875 -12.4139
rtoes 24.0911
lfemur -6.95085 9.5501 -12.7564
ltibia 81.7408
lfoot -6.98174 -4.96567
ltoes -30.1292
74
root -1.06429 16.8607 -8.92689 3.85377 -0.27101 6.42751
lowerback 13.598 -1.04217 -5.15431
upperback 0.897686 -2.07323 1.35419
thorax -6.44707 -0.846148 4.74754
lowerneck -13.1125 2.96742 1.01414
upperneck 18.7597 4.51192 -3.13394
head 8.06764 1.90092 -0.721057
rclavicle 1.98785e-016 -1.59028e-014
rhumerus -41.0165 -15.4603 -72.5135
rradius 34.4519
rwrist -3.49085
rhand -10.9245 -36.4607
rfingers 7.12502
rthumb 15.0933 -65.8904
lclavicle 1.98785e-016 -1.59028e-014
lhumerus -40.5697 9.19621 88.6189
lradius 54.3211
lwrist -1.2065
lhand -10.9521 -20.5701
lfingers 7.12502
lthumb 15.0666 8.86165
rfemur -28.8214 -2.47381 19.6352
rtibia 53.7009
rfoot -26.2614 -12.8124
rtoes 26.0783
lfemur -7.88266 9.92065 -13.2694
ltibia 81.0118
lfoot -7.53144 -5.41514
ltoes -30.0344
75
root -1.07895 16.8938 -8.8497 3.90032 0.134411 6.17085
lowerback 13.7063 -1.14127 -5.35406
upperback 1.01496 -2.24195 1.29344
thorax -6.357 -0.929467 4.82776
lowerneck -13.1715 2.94834 1.22363
upperneck 18.4293 4.40951 -3.04665
head 7.96818 1.87935 -0.738277
rclavicle 3.73715e-014 -1.59028e-014
rhumerus -40.689 -14.2413 -74.2528
rradius 36.1703
rwrist -2.47407
rhand -11.6877 -36.1684
rfingers 7.12502
rthumb 14.358 -65.6519
lclavicle 3.73715e-014 -1.59028e-014
lhumerus -40.5861 8.52597 89.0692
lradius 54.7944
lwrist -2.15885
lhand -11.3645 -21.0511
lfingers 7.12502
lthumb 14.6693 8.41001
rfemur -28.1155 -2.34278 19.9763
rtibia 52.9824
rfoot -26.6107 -13.1527
rtoes 27.3072
lfemur -8.50021 10.2084 -13.6341
ltibia 80.4041
lfoot -7.56351 -5.26423
ltoes -28.7789
76
root -1.09517 16.9284 -8.76774 3.92596 0.650627 5.82478
lowerback 13.7513 -1.27264 -5.45981
upperback 1.09751 -2.43208 1.29586
thorax -6.2663 -1.02462 4.92407
lowerneck -13.0559 2.91024 1.27865
upperneck 18.2553 4.30725 -2.89071
head 7.88457 1.8532 -0.709292
rclavicle 2.78299e-015 2.22639e-014
rhumerus -40.4223 -13.1614 -75.6869
rradius 37.616
rwrist -1.61181
rhand -12.5372 -36.121
rfingers 7.12502
rthumb 13.5393 -65.6608
lclavicle 2.78299e-015 2.22639e-014
lhumerus -40.5449 8.23334 89.4572
lradius 55.018
lwrist -2.18678
lhand -11.5763 -20.6883
lfingers 7.12502
lthumb 14.4653 8.78754
rfemur -27.3104 -2.2508 20.4069
rtibia 52.1955
rfoot -26.7175 -13.6255
rtoes 28.2452
lfemur -8.90545 10.5342 -13.7952
ltibia 79.9225
lfoot -7.16778 -4.79034
ltoes -26.8398
77
root -1.10712 16.9604 -8.68343 3.97988 1.16891 5.4745
lowerback 13.6873 -1.38835 -5.47985
upperback 1.15193 -2.58341 1.29273
thorax -6.15311 -1.10367 4.95419
lowerneck -12.8931 2.86585 1.31344
upperneck 18.287 4.21142 -2.74893
head 7.86101 1.82508 -0.680809
rclavicle -2.56432e-014 2.54444e-014
rhumerus -40.1088 -12.1781 -76.9476
rradius 38.7097
rwrist -1.95682
rhand -13.8549 -35.6902
rfingers 7.12502
rthumb 12.269 -65.3103
lclavicle -2.56432e-014 2.54444e-014
lhumerus -40.2879 8.2542 89.7603
lradius 54.9442
lwrist -1.5976
lhand -11.555 -19.5559
lfingers 7.12502
lthumb 14.4858 9.91843
rfemur -26.5157 -2.1179 20.8081
rtibia 51.3763
rfoot -26.7834 -13.885
rtoes 29.8671
lfemur -9.17545 10.9055 -13.9431
ltibia 79.5788
lfoot -6.56914 -4.26579
ltoes -27.0415
